HIERARCHY
ROOT hip
{
	OFFSET 0.000000 0.000000 0.000000
	CHANNELS 6 Xposition Yposition Zposition Xrotation Zrotation Yrotation 
	JOINT abdomen
	{
		OFFSET 0.000000 3.422050 0.000000
		CHANNELS 3 Xrotation Zrotation Yrotation 
		JOINT chest
		{
			OFFSET 0.000000 8.486693 -0.684411
			CHANNELS 3 Xrotation Zrotation Yrotation 
			JOINT neck
			{
				OFFSET 0.000000 10.266162 -0.273764
				CHANNELS 3 Xrotation Zrotation Yrotation 
				JOINT head
				{
					OFFSET 0.000000 3.148285 0.000000
					CHANNELS 3 Xrotation Zrotation Yrotation 
					End Site
					{
						OFFSET 0.000000 3.148289 0.000000
					}
				}
			}
			JOINT lCollar
			{
				OFFSET 3.422053 6.707223 -0.821293
				CHANNELS 3 Yrotation Zrotation Xrotation 
				JOINT lShldr
				{
					OFFSET 3.285171 0.000000 0.000000
					CHANNELS 3 Zrotation Yrotation Xrotation 
					JOINT lForeArm
					{
						OFFSET 10.129278 0.000000 0.000000
						CHANNELS 3 Yrotation Zrotation Xrotation 
						JOINT lHand
						{
							OFFSET 8.486692 0.000000 0.000000
							CHANNELS 3 Zrotation Yrotation Xrotation 
							End Site
							{
								OFFSET 4.106464 0.000000 0.000000
							}
						}
					}
				}
			}
			JOINT rCollar
			{
				OFFSET -3.558935 6.707223 -0.821293
				CHANNELS 3 Yrotation Zrotation Xrotation 
				JOINT rShldr
				{
					OFFSET -3.148289 0.000000 0.000000
					CHANNELS 3 Zrotation Yrotation Xrotation 
					JOINT rForeArm
					{
						OFFSET -10.266159 0.000000 0.000000
						CHANNELS 3 Yrotation Zrotation Xrotation 
						JOINT rHand
						{
							OFFSET -8.349810 0.000000 0.000000
							CHANNELS 3 Zrotation Yrotation Xrotation 
							End Site
							{
								OFFSET -4.106464 0.000000 0.000000
							}
						}
					}
				}
			}
		}
	}
	JOINT lThigh
	{
		OFFSET 5.338403 -1.642589 1.368821
		CHANNELS 3 Xrotation Zrotation Yrotation 
		JOINT lShin
		{
			OFFSET -2.053232 -20.121670 0.000000
			CHANNELS 3 Xrotation Zrotation Yrotation 
			JOINT lFoot
			{
				OFFSET 0.000000 -19.300380 -1.231939
				CHANNELS 3 Xrotation Yrotation Zrotation 
				End Site
				{
					OFFSET 0.000000 -2.463878 4.653993
				}
			}
		}
	}
	JOINT rThigh
	{
		OFFSET -5.338403 -1.642589 1.368821
		CHANNELS 3 Xrotation Zrotation Yrotation 
		JOINT rShin
		{
			OFFSET 2.053232 -20.121670 0.000000
			CHANNELS 3 Xrotation Zrotation Yrotation 
			JOINT rFoot
			{
				OFFSET 0.000000 -19.300380 -1.231939
				CHANNELS 3 Xrotation Yrotation Zrotation 
				End Site
				{
					OFFSET 0.000000 -2.463878 4.653993
				}
			}
		}
	}
}
MOTION
Frames: 11
Frame Time: 0.033264
-0.657827 16.479832 4.923128 25.974592 0.551265 179.516052 22.984707 0.000000 0.000000 18.301571 3.392653 -2.637772 -20.751217 4.965597 12.922037 -0.230164 8.013575 0.192460 -0.000049 11.002516 6.990519 -24.367601 -57.724655 26.517384 -33.968716 3.536777 -52.797703 -2.002532 -18.003267 -16.001005 -0.003271 -11.006244 6.990227 -118.375717 77.741043 173.115891 18.408905 -2.786233 -26.620016 24.998371 17.996714 -0.001124 -65.395592 24.521576 -21.118549 51.972359 -40.673584 16.635141 12.785826 2.943170 -4.521487 -86.556107 -33.195812 28.491701 93.483559 20.333948 0.242866 -6.313229 -3.752853 3.639643 
-0.657827 16.479832 4.923128 25.974592 0.551265 179.516052 22.984707 0.000000 0.000000 18.301571 3.392653 -2.637772 -21.000317 4.998272 12.999959 -0.230164 8.013575 0.192460 -0.000049 11.002516 6.990519 -24.548752 -57.847237 26.477549 -33.968716 3.536777 -52.797703 -2.002532 -18.003267 -16.001005 -0.003271 -11.006244 6.990227 -118.102699 77.588013 173.163544 18.371212 -2.789845 -26.444641 24.998369 17.996712 -0.001123 -65.395592 24.521576 -21.118549 51.972359 -40.673584 16.635141 12.785825 2.943170 -4.521487 -86.556107 -33.195812 28.491701 93.483559 20.333948 0.242866 -6.313228 -3.752853 3.639643 
-0.657827 16.479832 4.923128 25.974592 0.551265 179.516052 22.984707 0.000000 0.000000 18.301571 3.392653 -2.637772 -20.749546 4.965379 12.921515 -0.230164 8.013574 0.192460 -0.000049 11.002516 6.990519 -24.730484 -57.969990 26.438309 -33.968716 3.536777 -52.797703 -2.002532 -18.003267 -16.001005 -0.003271 -11.006244 6.990227 -117.833771 77.435043 173.207245 18.333538 -2.793571 -26.269323 24.998369 17.996712 -0.001123 -65.395592 24.521576 -21.118549 51.972359 -40.673584 16.635141 12.785825 2.943170 -4.521487 -86.556107 -33.195812 28.491701 93.483559 20.333948 0.242866 -6.313229 -3.752853 3.639643 
-0.657827 16.479832 4.923128 25.974592 0.551265 179.516052 22.984707 0.000000 0.000000 18.301571 3.392653 -2.637772 -20.498526 4.932799 12.842858 -0.230164 8.013575 0.192460 -0.000049 11.002516 6.990519 -24.912773 -58.092857 26.399643 -33.968716 3.536777 -52.797703 -2.002532 -18.003267 -16.001005 -0.003271 -11.006244 6.990227 -117.568756 77.282166 173.247116 18.295891 -2.797411 -26.094059 24.998369 17.996712 -0.001123 -65.395592 24.521576 -21.118549 51.972359 -40.673584 16.635141 12.785826 2.943170 -4.521487 -86.556107 -33.195812 28.491701 93.483559 20.333948 0.242866 -6.313228 -3.752853 3.639643 
-0.657827 16.479832 4.923128 25.974592 0.551265 179.516052 22.984707 0.000000 0.000000 18.301571 3.392653 -2.637772 -20.247257 4.900537 12.764000 -0.230164 8.013575 0.192460 -0.000049 11.002516 6.990519 -25.095629 -58.215847 26.361557 -33.968716 3.536777 -52.797703 -2.002532 -18.003267 -16.001005 -0.003271 -11.006244 6.990227 -117.307472 77.129349 173.283356 18.258266 -2.801365 -25.918844 24.998369 17.996712 -0.001123 -65.395592 24.521576 -21.118549 51.972359 -40.673584 16.635141 12.785825 2.943170 -4.521487 -86.556107 -33.195812 28.491701 93.483559 20.333948 0.242866 -6.313228 -3.752853 3.639643 
-0.657827 16.479832 4.923128 25.974592 0.551265 179.516052 22.984707 0.000000 0.000000 18.301571 3.392653 -2.637772 -19.995756 4.868594 12.684938 -0.230164 8.013574 0.192460 -0.000049 11.002516 6.990519 -25.279076 -58.338989 26.324081 -33.968716 3.536777 -52.797703 -2.002532 -18.003267 -16.001005 -0.003271 -11.006244 6.990227 -117.049797 76.976578 173.316055 18.220663 -2.805434 -25.743689 24.998369 17.996712 -0.001123 -65.395592 24.521576 -21.118549 51.972359 -40.673584 16.635141 12.785825 2.943170 -4.521487 -86.556107 -33.195812 28.491701 93.483559 20.333948 0.242866 -6.313229 -3.752853 3.639643 
-0.657827 16.479832 4.923128 25.974592 0.551265 179.516052 22.984707 0.000000 0.000000 18.301571 3.392653 -2.637772 -19.744005 4.836969 12.605672 -0.230164 8.013575 0.192460 -0.000049 11.002516 6.990519 -25.463093 -58.462234 26.287195 -33.968716 3.536777 -52.797703 -2.002532 -18.003267 -16.001005 -0.003271 -11.006244 6.990227 -116.795609 76.823868 173.345337 18.183084 -2.809614 -25.568584 24.998369 17.996712 -0.001123 -65.395592 24.521576 -21.118549 51.972359 -40.673584 16.635141 12.785824 2.943170 -4.521487 -86.556107 -33.195812 28.491701 93.483559 20.333948 0.242866 -6.313228 -3.752853 3.639643 
-0.657827 16.479832 4.923128 25.974592 0.551265 179.516052 22.984707 0.000000 0.000000 18.301571 3.392653 -2.637772 -19.492031 4.805668 12.526211 -0.230164 8.013575 0.192460 -0.000049 11.002516 6.990519 -25.647703 -58.585606 26.250925 -33.968716 3.536777 -52.797703 -2.002532 -18.003267 -16.001005 -0.003271 -11.006244 6.990227 -116.544792 76.671272 173.371368 18.145531 -2.813909 -25.393541 24.998369 17.996712 -0.001123 -65.395592 24.521576 -21.118549 51.972359 -40.673584 16.635141 12.785825 2.943170 -4.521487 -86.556107 -33.195812 28.491701 93.483559 20.333948 0.242866 -6.313228 -3.752853 3.639643 
-0.657827 16.479832 4.923128 25.974592 0.551265 179.516052 22.984707 0.000000 0.000000 18.301571 3.392653 -2.637772 -19.239820 4.774691 12.446552 -0.230164 8.013574 0.192460 -0.000049 11.002516 6.990519 -25.832905 -58.709091 26.215265 -33.968716 3.536777 -52.797703 -2.002532 -18.003267 -16.001005 -0.003271 -11.006244 6.990227 -116.297264 76.518761 173.394211 18.108002 -2.818316 -25.218554 24.998371 17.996714 -0.001124 -65.395592 24.521576 -21.118549 51.972359 -40.673584 16.635141 12.785825 2.943170 -4.521487 -86.556107 -33.195812 28.491701 93.483559 20.333948 0.242866 -6.313228 -3.752853 3.639643 
-0.657827 16.479832 4.923128 25.974592 0.551265 179.516052 22.984707 0.000000 0.000000 18.301571 3.392653 -2.637772 -18.987381 4.744040 12.366699 -0.230164 8.013575 0.192460 -0.000049 11.002516 6.990519 -26.018723 -58.832722 26.180250 -33.968716 3.536777 -52.797703 -2.002532 -18.003267 -16.001005 -0.003271 -11.006244 6.990227 -116.052879 76.366356 173.414001 18.070499 -2.822837 -25.043621 24.998371 17.996714 -0.001124 -65.395592 24.521576 -21.118549 51.972359 -40.673584 16.635141 12.785824 2.943170 -4.521487 -86.556107 -33.195812 28.491701 93.483559 20.333948 0.242866 -6.313228 -3.752853 3.639643 
-0.657827 16.479832 4.923128 25.974592 0.551265 179.516052 22.984707 0.000000 0.000000 18.301571 3.392653 -2.637772 -18.734715 4.713717 12.286651 -0.230164 8.013575 0.192460 -0.000049 11.002516 6.990519 -26.205147 -58.956467 26.145864 -33.968716 3.536777 -52.797703 -2.002532 -18.003267 -16.001005 -0.003271 -11.006244 6.990227 -115.811516 76.213982 173.430801 18.033022 -2.827470 -24.868750 24.998371 17.996714 -0.001124 -65.395592 24.521576 -21.118549 51.972359 -40.673584 16.635141 12.785825 2.943170 -4.521487 -86.556107 -33.195812 28.491701 93.483559 20.333948 0.242866 -6.313228 -3.752853 3.639643 
